<svg width="216" height="24" viewBox="0 0 216 24" fill="none" xmlns="http://www.w3.org/2000/svg">
<path fill-rule="evenodd" clip-rule="evenodd" d="M109.798 19.5849C112.743 19.4926 115.056 17.0426 114.964 14.1127L114.985 0H119.589V14.1127C119.589 19.5727 115.14 24 109.652 24C104.164 24 99.7144 19.5727 99.7144 14.1127V0H104.298V14.1127V14.445C104.39 17.3754 106.853 19.6764 109.798 19.5849ZM17.1604 6.60067C15.7799 5.30506 13.9529 4.58374 12.0545 4.58589C10.1562 4.58523 8.3292 5.30622 6.94705 6.6005C3.95118 9.40673 3.80904 14.0979 6.62936 17.0785C9.44967 20.059 14.1647 20.2006 17.1604 17.3944L19.8021 21.1862C15.3212 24.9262 8.78853 24.9262 4.30762 21.1862C-0.79289 16.9293 -1.45937 9.36422 2.81957 4.28965C7.09833 -0.78475 14.7015 -1.44769 19.8021 2.80963L17.1604 6.60067ZM63.9845 16.1277L52.7705 0.00518799H48.1656V23.9921H52.7705V7.86911L63.9845 23.9921H68.5887V0.00518799H63.9845V16.1277ZM74.7231 4.58669V0.00518799H93.5591V4.58669H86.4436V23.9921H81.8388V4.58669H74.7231ZM201.715 0.00518799V4.58669H204.221V23.9921H208.826V0.00518799H201.715ZM25.9468 23.9921V0.00518799H42.0157V4.58669H30.5513V9.7079H39.7605V14.2894H30.5513V19.4106H42.0157V23.9921H25.9468ZM144.21 8.05612C144.204 3.61108 140.585 0.00810475 136.118 0H125.708V23.9921H130.312V16.1022H133.252L138.734 23.9818H144.21L138.467 15.7487C141.869 14.7143 144.198 11.5958 144.21 8.05612ZM136.118 11.5309H130.312V4.58663H136.118C138.046 4.66073 139.547 6.27523 139.473 8.19308C139.403 10.0066 137.941 11.4608 136.118 11.5309ZM158.551 9.7079L165.301 0.00518799H170.772L160.853 14.2629V23.9921H156.248V14.2629L146.324 0.00518799H151.796L158.551 9.7079ZM195.195 11.9936L195.314 11.822C197.666 8.34791 196.742 3.63491 193.25 1.29528C189.758 -1.04401 185.022 -0.124371 182.67 3.34976C181.822 4.60219 181.37 6.07841 181.371 7.58838V7.8689H185.986C185.981 7.77561 185.981 7.68167 185.986 7.58838C185.986 5.93683 187.327 4.59458 188.988 4.58648C190.592 4.52462 191.943 5.76944 192.005 7.36608V7.37534C192.01 7.44646 192.01 7.51742 192.005 7.58838C191.851 8.42548 191.52 9.22074 191.034 9.92073C190.778 10.2945 181.24 23.9919 181.24 23.9919H197.058V19.4104H190.032L195.195 11.9936ZM213.686 23.9793C212.41 23.9793 211.371 22.9465 211.371 21.6771C211.371 20.4073 212.41 19.3745 213.686 19.3745C214.962 19.3745 216 20.4073 216 21.6771C216 22.9465 214.962 23.9793 213.686 23.9793ZM213.686 19.722C212.602 19.722 211.721 20.5985 211.721 21.6771C211.721 22.7548 212.602 23.6318 213.686 23.6318C214.769 23.6318 215.651 22.7548 215.651 21.6771C215.651 20.5985 214.769 19.722 213.686 19.722ZM212.814 22.8882V20.4657H213.874C213.983 20.4657 214.085 20.4885 214.177 20.5337C214.27 20.5798 214.35 20.6387 214.416 20.7128C214.482 20.7874 214.534 20.8709 214.572 20.9654C214.609 21.0597 214.628 21.1561 214.628 21.254C214.628 21.3357 214.616 21.4144 214.593 21.4894C214.571 21.5646 214.538 21.6338 214.498 21.698C214.457 21.7618 214.407 21.8172 214.347 21.8637C214.288 21.9098 214.222 21.9447 214.152 21.9671L214.724 22.8884H214.288L213.76 22.0458H213.198V22.8884H212.814V22.8882ZM213.198 21.7074H213.871C213.925 21.7074 213.975 21.6951 214.02 21.6713C214.064 21.6473 214.102 21.6139 214.134 21.5729C214.166 21.5307 214.191 21.4826 214.21 21.4274C214.228 21.3729 214.237 21.3149 214.237 21.2538C214.237 21.1926 214.226 21.1346 214.205 21.0793C214.183 21.0246 214.154 20.9763 214.118 20.9363C214.083 20.8957 214.042 20.8633 213.994 20.8395C213.948 20.8157 213.899 20.8039 213.849 20.8039H213.198V21.7074H213.198Z" fill="#D8C497"/>
</svg>
